<svg width="27" height="22" viewBox="0 0 27 22" fill="none" xmlns="http://www.w3.org/2000/svg">
<path d="M24.3824 0.484375H2.20398C1.76844 0.484934 1.35091 0.654854 1.04294 0.956873C0.734966 1.25889 0.561697 1.66836 0.561127 2.09547V15.7898C0.561697 16.2169 0.734966 16.6264 1.04294 16.9284C1.35091 17.2304 1.76844 17.4004 2.20398 17.4009H10.6698L10.122 19.012H8.77537C8.66644 19.012 8.56198 19.0544 8.48495 19.13C8.40793 19.2055 8.36466 19.308 8.36466 19.4148V20.2203H4.66825C4.55932 20.2203 4.45485 20.2628 4.37783 20.3383C4.30081 20.4138 4.25754 20.5163 4.25754 20.6231C4.25754 20.7299 4.30081 20.8324 4.37783 20.9079C4.45485 20.9835 4.55932 21.0259 4.66825 21.0259H22.7396C22.8485 21.0259 22.953 20.9835 23.03 20.9079C23.107 20.8324 23.1503 20.7299 23.1503 20.6231C23.1503 20.5163 23.107 20.4138 23.03 20.3383C22.953 20.2628 22.8485 20.2203 22.7396 20.2203H18.2218V19.4148C18.2218 19.308 18.1785 19.2055 18.1015 19.13C18.0244 19.0544 17.92 19.012 17.811 19.012H16.4644L15.9166 17.4009H24.3824C24.818 17.4004 25.2355 17.2304 25.5435 16.9284C25.8514 16.6264 26.0247 16.2169 26.0253 15.7898V2.09547C26.0247 1.66836 25.8514 1.25889 25.5435 0.956873C25.2355 0.654854 24.818 0.484934 24.3824 0.484375ZM17.4003 19.8176V20.2203H9.18608V19.8176H17.4003ZM10.9881 19.012L11.5359 17.4009H15.0505L15.5983 19.012H10.9881ZM25.2039 15.7898C25.2036 16.0034 25.1169 16.2081 24.963 16.3591C24.809 16.5101 24.6002 16.5951 24.3824 16.5954H2.20398C1.98621 16.5951 1.77744 16.5101 1.62346 16.3591C1.46947 16.2081 1.38284 16.0034 1.38255 15.7898V14.9843H25.2039V15.7898ZM7.52578 10.5537L7.37176 14.1787H6.89328L6.73926 10.5537H7.52578ZM6.79574 9.74819L7.06989 8.1371H7.19516L7.46931 9.74819H6.79574ZM7.13252 7.33155C6.68741 7.33155 6.3111 6.77823 6.3111 6.12322C6.3111 5.70987 6.74132 5.10924 7.1315 4.68582C7.48317 5.06846 7.95395 5.68017 7.95395 6.12322C7.95395 6.77823 7.57763 7.33155 7.13252 7.33155ZM11.6021 6.526L11.6504 6.62115V6.92877H10.0075V6.62115L10.0558 6.526H11.6021ZM10.4665 5.72045L10.8289 5.01005L11.1914 5.72045H10.4665ZM11.6504 7.73432V14.1284C11.6505 14.1452 11.6517 14.162 11.654 14.1787H10.0039C10.0061 14.162 10.0074 14.1452 10.0075 14.1284V7.73432H11.6504ZM15.3468 6.12322H16.5789V6.92877H16.1682C16.0593 6.92877 15.9548 6.97121 15.8778 7.04674C15.8007 7.12228 15.7575 7.22472 15.7575 7.33155C15.7575 7.43837 15.8007 7.54082 15.8778 7.61635C15.9548 7.69189 16.0593 7.73432 16.1682 7.73432H16.5789V8.53987H15.3468C15.2378 8.53987 15.1334 8.58231 15.0563 8.65784C14.9793 8.73338 14.9361 8.83582 14.9361 8.94265C14.9361 9.04947 14.9793 9.15192 15.0563 9.22745C15.1334 9.30299 15.2378 9.34542 15.3468 9.34542H16.5789V10.151H16.1682C16.0593 10.151 15.9548 10.1934 15.8778 10.2689C15.8007 10.3445 15.7575 10.4469 15.7575 10.5537C15.7575 10.6606 15.8007 10.763 15.8778 10.8385C15.9548 10.9141 16.0593 10.9565 16.1682 10.9565H16.5789V11.7621H15.3468C15.2378 11.7621 15.1334 11.8045 15.0563 11.88C14.9793 11.9556 14.9361 12.058 14.9361 12.1648C14.9361 12.2717 14.9793 12.3741 15.0563 12.4496C15.1334 12.5252 15.2378 12.5676 15.3468 12.5676H16.5789V14.1787H13.7039V4.51212H16.5789V5.31767H15.3468C15.2378 5.31767 15.1334 5.36011 15.0563 5.43564C14.9793 5.51118 14.9361 5.61362 14.9361 5.72045C14.9361 5.82727 14.9793 5.92972 15.0563 6.00525C15.1334 6.08079 15.2378 6.12322 15.3468 6.12322ZM20.2753 10.9565V14.1284C20.2755 14.1452 20.2767 14.162 20.2789 14.1787H18.6289C18.6311 14.162 18.6323 14.1452 18.6325 14.1284V10.9565H20.2753ZM18.6325 10.151V9.84335L19.4539 8.23225L20.2753 9.84335V10.151H18.6325ZM25.2039 14.1787H21.0931C21.0954 14.162 21.0966 14.1452 21.0967 14.1284V9.74819C21.0967 9.68566 21.0819 9.62399 21.0536 9.56795L19.8215 7.1513C19.7873 7.08442 19.7348 7.02818 19.6699 6.98887C19.605 6.94957 19.5302 6.92875 19.4539 6.92875C19.3776 6.92875 19.3028 6.94957 19.2379 6.98887C19.173 7.02818 19.1205 7.08442 19.0863 7.1513L17.8542 9.56795C17.8259 9.62399 17.8111 9.68566 17.811 9.74819V14.1284C17.8112 14.1452 17.8124 14.162 17.8146 14.1787H17.4003V4.10935C17.4003 4.00253 17.3571 3.90008 17.28 3.82454C17.203 3.74901 17.0985 3.70657 16.9896 3.70657H13.2932C13.1843 3.70657 13.0798 3.74901 13.0028 3.82454C12.9258 3.90008 12.8825 4.00253 12.8825 4.10935V14.1787H12.4682C12.4704 14.162 12.4716 14.1452 12.4718 14.1284V6.526C12.4717 6.46346 12.457 6.40179 12.4287 6.34575L11.1965 3.92911C11.1623 3.86222 11.1098 3.80598 11.0449 3.76668C10.98 3.72737 10.9052 3.70656 10.8289 3.70656C10.7526 3.70656 10.6779 3.72737 10.6129 3.76668C10.548 3.80598 10.4955 3.86222 10.4613 3.92911L9.22921 6.34575C9.2009 6.40179 9.18614 6.46346 9.18608 6.526V14.1284C9.18624 14.1452 9.18744 14.162 9.18968 14.1787H8.1937L8.36415 10.1676C8.36466 10.1585 8.36415 10.1495 8.36415 10.1399V10.1278C8.36319 10.1136 8.36148 10.0995 8.35901 10.0855V10.0845L7.9791 7.84861C8.45604 7.49568 8.77537 6.85426 8.77537 6.12322C8.77537 5.08809 7.55196 3.94169 7.41232 3.81432C7.33622 3.74514 7.23629 3.7067 7.13252 3.7067C7.02876 3.7067 6.92882 3.74514 6.85272 3.81432C6.71308 3.94169 5.48967 5.08809 5.48967 6.12322C5.48967 6.85426 5.809 7.49568 6.28594 7.84861L5.90603 10.0845V10.0855C5.90356 10.0995 5.90185 10.1136 5.9009 10.1278V10.1399C5.9009 10.1495 5.90039 10.1585 5.9009 10.1676L6.07134 14.1787H1.38255V2.09547C1.38284 1.88191 1.46947 1.67718 1.62346 1.52617C1.77744 1.37516 1.98621 1.2902 2.20398 1.28992H24.3824C24.6002 1.2902 24.809 1.37516 24.963 1.52617C25.1169 1.67718 25.2036 1.88191 25.2039 2.09547V14.1787Z" fill="black"/>
<path d="M5.07896 15.387H2.61469C2.50576 15.387 2.4013 15.4294 2.32427 15.5049C2.24725 15.5805 2.20398 15.6829 2.20398 15.7897C2.20398 15.8966 2.24725 15.999 2.32427 16.0745C2.4013 16.1501 2.50576 16.1925 2.61469 16.1925H5.07896C5.18789 16.1925 5.29236 16.1501 5.36938 16.0745C5.44641 15.999 5.48968 15.8966 5.48968 15.7897C5.48968 15.6829 5.44641 15.5805 5.36938 15.5049C5.29236 15.4294 5.18789 15.387 5.07896 15.387Z" fill="black"/>
<path d="M6.72182 15.387H6.3111C6.20218 15.387 6.09771 15.4294 6.02069 15.5049C5.94366 15.5805 5.90039 15.6829 5.90039 15.7897C5.90039 15.8966 5.94366 15.999 6.02069 16.0745C6.09771 16.1501 6.20218 16.1925 6.3111 16.1925H6.72182C6.83074 16.1925 6.93521 16.1501 7.01223 16.0745C7.08926 15.999 7.13253 15.8966 7.13253 15.7897C7.13253 15.6829 7.08926 15.5805 7.01223 15.5049C6.93521 15.4294 6.83074 15.387 6.72182 15.387Z" fill="black"/>
<path d="M10.8289 8.13708C10.72 8.13708 10.6155 8.17952 10.5385 8.25505C10.4615 8.33059 10.4182 8.43304 10.4182 8.53986V12.9704C10.4182 13.0772 10.4615 13.1797 10.5385 13.2552C10.6155 13.3307 10.72 13.3732 10.8289 13.3732C10.9379 13.3732 11.0423 13.3307 11.1193 13.2552C11.1964 13.1797 11.2396 13.0772 11.2396 12.9704V8.53986C11.2396 8.43304 11.1964 8.33059 11.1193 8.25505C11.0423 8.17952 10.9379 8.13708 10.8289 8.13708Z" fill="black"/>
<path d="M19.4539 11.3593C19.345 11.3593 19.2405 11.4017 19.1635 11.4772C19.0865 11.5528 19.0432 11.6552 19.0432 11.762V12.9704C19.0432 13.0772 19.0865 13.1796 19.1635 13.2552C19.2405 13.3307 19.345 13.3731 19.4539 13.3731C19.5628 13.3731 19.6673 13.3307 19.7443 13.2552C19.8213 13.1796 19.8646 13.0772 19.8646 12.9704V11.762C19.8646 11.6552 19.8213 11.5528 19.7443 11.4772C19.6673 11.4017 19.5628 11.3593 19.4539 11.3593Z" fill="black"/>
<path d="M2.61469 2.90101H5.90039C6.00932 2.90101 6.11378 2.85857 6.19081 2.78304C6.26783 2.7075 6.3111 2.60506 6.3111 2.49823C6.3111 2.39141 6.26783 2.28896 6.19081 2.21343C6.11378 2.13789 6.00932 2.09546 5.90039 2.09546H2.61469C2.50576 2.09546 2.4013 2.13789 2.32427 2.21343C2.24725 2.28896 2.20398 2.39141 2.20398 2.49823C2.20398 2.60506 2.24725 2.7075 2.32427 2.78304C2.4013 2.85857 2.50576 2.90101 2.61469 2.90101Z" fill="black"/>
<path d="M2.61469 4.10938H3.43612C3.54504 4.10938 3.64951 4.06695 3.72653 3.99141C3.80356 3.91588 3.84683 3.81343 3.84683 3.70661C3.84683 3.59979 3.80356 3.49734 3.72653 3.4218C3.64951 3.34627 3.54504 3.30383 3.43612 3.30383H2.61469C2.50576 3.30383 2.4013 3.34627 2.32427 3.4218C2.24725 3.49734 2.20398 3.59979 2.20398 3.70661C2.20398 3.81343 2.24725 3.91588 2.32427 3.99141C2.4013 4.06695 2.50576 4.10938 2.61469 4.10938Z" fill="black"/>
<path d="M22.3289 13.3732H23.9717C24.0806 13.3732 24.1851 13.3307 24.2621 13.2552C24.3392 13.1797 24.3824 13.0772 24.3824 12.9704C24.3824 12.8636 24.3392 12.7611 24.2621 12.6856C24.1851 12.6101 24.0806 12.5676 23.9717 12.5676H22.3289C22.2199 12.5676 22.1155 12.6101 22.0384 12.6856C21.9614 12.7611 21.9182 12.8636 21.9182 12.9704C21.9182 13.0772 21.9614 13.1797 22.0384 13.2552C22.1155 13.3307 22.2199 13.3732 22.3289 13.3732Z" fill="black"/>
<path d="M23.561 12.1648H23.9717C24.0807 12.1648 24.1851 12.1224 24.2621 12.0468C24.3392 11.9713 24.3824 11.8689 24.3824 11.762C24.3824 11.6552 24.3392 11.5528 24.2621 11.4772C24.1851 11.4017 24.0807 11.3593 23.9717 11.3593H23.561C23.4521 11.3593 23.3476 11.4017 23.2706 11.4772C23.1936 11.5528 23.1503 11.6552 23.1503 11.762C23.1503 11.8689 23.1936 11.9713 23.2706 12.0468C23.3476 12.1224 23.4521 12.1648 23.561 12.1648Z" fill="black"/>
</svg>
