<svg width="27" height="25" viewBox="0 0 27 25" fill="none" xmlns="http://www.w3.org/2000/svg">
<path d="M0.598236 0.637573V21.1351H8.77124V22.6007H7.27741V24.0639H19.3832V22.6007H17.8893V21.1351H26.0624V0.637573H0.598236ZM16.3972 22.6007H10.2634V21.1351H16.3973V22.6007H16.3972ZM24.5703 19.6718H2.09033V16.7418H24.5703V19.6718H24.5703ZM24.5703 15.2785H2.09033V2.10088H24.5703V15.2785H24.5703Z" fill="black"/>
<path d="M10.7413 6.04493L9.6862 5.01025L5.93427 8.68968L9.6862 12.3691L10.7413 11.3344L8.04441 8.68968L10.7413 6.04493Z" fill="black"/>
<path d="M16.9744 5.01025L15.9194 6.04493L18.6162 8.68968L15.9194 11.3344L16.9744 12.3691L20.7263 8.68968L16.9744 5.01025Z" fill="black"/>
<path d="M13.4647 4.27746L11.7325 12.8169L13.196 13.1024L14.9282 4.56295L13.4647 4.27746Z" fill="black"/>
</svg>
