<svg width="27" height="25" viewBox="0 0 27 25" fill="none" xmlns="http://www.w3.org/2000/svg">
<path d="M3.97274 15.604L2.07352 15.1931C1.51689 16.2944 0.988655 17.5316 0.988655 18.9568C0.988655 20.3548 1.4955 21.5769 2.07352 22.7205L8.49859 21.3306V24.0717L10.7367 22.9743L12.9747 24.0717V21.332L19.3497 22.7213C19.902 21.6285 20.4349 20.3881 20.4349 18.9568C20.4349 18.7101 20.4163 18.4645 20.385 18.2252H26.4528V0.666748H3.97274V15.604ZM2.92483 21.0379C2.73076 20.5347 2.4807 19.7352 2.4807 18.9568C2.4807 18.1783 2.73081 17.3787 2.92483 16.8756L8.49859 18.0814V19.8322L2.92483 21.0379ZM11.4827 21.7042L10.7367 21.3384L9.99063 21.7042V18.2252H11.4827V21.7042ZM18.4991 21.0371L12.9747 19.8331V18.0804L18.4991 16.8765C18.6931 17.3799 18.9429 18.1789 18.9429 18.9568C18.9429 19.7348 18.6931 20.534 18.4991 21.0371V21.0371ZM24.9608 2.12995V16.762H20.0397C19.7951 16.0283 19.598 15.6819 19.3497 15.1923L12.1468 16.762H9.32598L5.46478 15.9267V2.12995H24.9608Z" fill="black"/>
<path d="M9.99063 3.59302H20.4349V5.05622H9.99063V3.59302Z" fill="black"/>
<path d="M6.95682 9.4458H23.4687V10.909H6.95682V9.4458Z" fill="black"/>
<path d="M9.99063 12.3723H20.4349V13.8355H9.99063V12.3723Z" fill="black"/>
<path d="M11.4827 6.51953H12.9747V7.98274H11.4827V6.51953Z" fill="black"/>
<path d="M14.4668 6.51953H15.9588V7.98274H14.4668V6.51953Z" fill="black"/>
<path d="M17.4508 6.51953H18.9429V7.98274H17.4508V6.51953Z" fill="black"/>
</svg>
