<svg width="26" height="26" viewBox="0 0 26 26" fill="none" xmlns="http://www.w3.org/2000/svg">
<path d="M21.0079 19.7918L20.3458 20.2249L21.9047 22.518H4.29346L6.15035 19.7867H16.2592V19.0063H5.93749C5.872 19.0063 5.80752 19.0222 5.74977 19.0525C5.69203 19.0828 5.6428 19.1266 5.60645 19.18L3.21919 22.6917C3.17572 22.7559 3.15247 22.8312 3.15234 22.9082V24.0788C3.15234 24.2858 3.23618 24.4843 3.38541 24.6306C3.53465 24.777 3.73705 24.8592 3.9481 24.8592H22.2505C22.4615 24.8592 22.6639 24.777 22.8131 24.6306C22.9624 24.4843 23.0462 24.2858 23.0462 24.0788V22.9082C23.0461 22.8312 23.0228 22.7559 22.9794 22.6917L21.0079 19.7918ZM3.9481 24.0788V23.2984H22.2505V24.0788H3.9481Z" fill="black"/>
<path d="M21.0569 1.448H5.14175C4.82547 1.44892 4.52242 1.57255 4.29877 1.79187C4.07513 2.01119 3.94906 2.30839 3.94812 2.61856V12.7635C3.94906 13.0736 4.07513 13.3708 4.29877 13.5901C4.52242 13.8095 4.82547 13.9331 5.14175 13.934H10.712V15.4948H9.12053C9.015 15.4948 8.9138 15.5359 8.83918 15.6091C8.76457 15.6822 8.72265 15.7815 8.72265 15.885V17.4457C8.72265 17.5492 8.76457 17.6484 8.83918 17.7216C8.9138 17.7948 9.015 17.8359 9.12053 17.8359H17.0781C17.1836 17.8359 17.2848 17.7948 17.3594 17.7216C17.434 17.6484 17.476 17.5492 17.476 17.4457V15.885C17.476 15.7815 17.434 15.6822 17.3594 15.6091C17.2848 15.5359 17.1836 15.4948 17.0781 15.4948H15.4866V13.934H21.0569C21.3731 13.9331 21.6762 13.8095 21.8998 13.5901C22.1235 13.3708 22.2495 13.0736 22.2505 12.7635V2.61856C22.2495 2.30839 22.1235 2.01119 21.8998 1.79187C21.6762 1.57255 21.3731 1.44892 21.0569 1.448V1.448ZM16.6802 16.2751V17.0555H9.5184V16.2751H16.6802ZM11.5078 15.4948V13.934H14.6908V15.4948H11.5078ZM21.4547 12.7635C21.4547 12.8669 21.4128 12.9662 21.3382 13.0394C21.2636 13.1125 21.1624 13.1536 21.0569 13.1536H5.14175C5.03623 13.1536 4.93503 13.1125 4.86041 13.0394C4.78579 12.9662 4.74388 12.8669 4.74388 12.7635V11.5929H21.4547V12.7635ZM21.4547 10.8125H4.74388V2.61856C4.74388 2.51508 4.78579 2.41583 4.86041 2.34266C4.93503 2.26948 5.03623 2.22837 5.14175 2.22837H21.0569C21.1624 2.22837 21.2636 2.26948 21.3382 2.34266C21.4128 2.41583 21.4547 2.51508 21.4547 2.61856V10.8125Z" fill="black"/>
<path d="M19.0674 11.9832H19.8632V12.7635H19.0674V11.9832Z" fill="black"/>
<path d="M9.51836 10.0322H11.1099C11.2154 10.0322 11.3166 9.99107 11.3912 9.91789C11.4658 9.84472 11.5077 9.74547 11.5077 9.64199V9.2518H14.6908V9.64199C14.6908 9.74547 14.7327 9.84472 14.8073 9.91789C14.8819 9.99107 14.9831 10.0322 15.0886 10.0322H16.6802C16.7857 10.0322 16.8869 9.99107 16.9615 9.91789C17.0361 9.84472 17.078 9.74547 17.078 9.64199V8.08123C17.078 7.97775 17.0361 7.8785 16.9615 7.80533C16.8869 7.73215 16.7857 7.69105 16.6802 7.69105H16.2823V5.34992H16.6802C16.7857 5.34992 16.8869 5.30881 16.9615 5.23563C17.0361 5.16246 17.078 5.06321 17.078 4.95973V3.39898C17.078 3.29549 17.0361 3.19625 16.9615 3.12307C16.8869 3.0499 16.7857 3.00879 16.6802 3.00879H15.0886C14.9831 3.00879 14.8819 3.0499 14.8073 3.12307C14.7327 3.19625 14.6908 3.29549 14.6908 3.39898V3.78917H11.5077V3.39898C11.5077 3.29549 11.4658 3.19625 11.3912 3.12307C11.3166 3.0499 11.2154 3.00879 11.1099 3.00879H9.51836C9.41284 3.00879 9.31164 3.0499 9.23702 3.12307C9.1624 3.19625 9.12048 3.29549 9.12048 3.39898V4.95973C9.12048 5.06321 9.1624 5.16246 9.23702 5.23563C9.31164 5.30881 9.41284 5.34992 9.51836 5.34992H9.91624V7.69105H9.51836C9.41284 7.69105 9.31164 7.73215 9.23702 7.80533C9.1624 7.8785 9.12048 7.97775 9.12048 8.08123V9.64199C9.12048 9.74547 9.1624 9.84472 9.23702 9.91789C9.31164 9.99107 9.41284 10.0322 9.51836 10.0322ZM16.2823 9.2518H15.4865V8.47142H16.2823V9.2518ZM15.4865 3.78917H16.2823V4.56954H15.4865V3.78917ZM9.91624 3.78917H10.712V4.56954H9.91624V3.78917ZM10.712 5.34992H11.1099C11.2154 5.34992 11.3166 5.30881 11.3912 5.23563C11.4658 5.16246 11.5077 5.06321 11.5077 4.95973V4.56954H14.6908V4.95973C14.6908 5.06321 14.7327 5.16246 14.8073 5.23563C14.8819 5.30881 14.9831 5.34992 15.0886 5.34992H15.4865V7.69105H15.0886C14.9831 7.69105 14.8819 7.73215 14.8073 7.80533C14.7327 7.8785 14.6908 7.97775 14.6908 8.08123V8.47142H11.5077V8.08123C11.5077 7.97775 11.4658 7.8785 11.3912 7.80533C11.3166 7.73215 11.2154 7.69105 11.1099 7.69105H10.712V5.34992ZM9.91624 8.47142H10.712V9.2518H9.91624V8.47142Z" fill="black"/>
<path d="M9.51837 20.9575H15.0887V21.7379H9.51837V20.9575Z" fill="black"/>
<path d="M24.1882 15.0421L23.0622 13.9379C23.0251 13.9015 22.981 13.8728 22.9325 13.8534C22.884 13.834 22.8321 13.8242 22.7797 13.8247C22.7279 13.8242 22.6765 13.834 22.6286 13.8534C22.5808 13.8729 22.5374 13.9016 22.5012 13.9379L17.1537 19.182C17.1101 19.2247 17.0774 19.2768 17.0582 19.3342L16.7757 20.1614C16.753 20.2299 16.7499 20.3033 16.7667 20.3735C16.7835 20.4436 16.8197 20.5079 16.8712 20.5594L16.3102 21.1134L16.8712 21.6636L17.4362 21.1134C17.4727 21.1494 17.5161 21.1779 17.5639 21.1974C17.6117 21.2168 17.6629 21.2267 17.7147 21.2266C17.7579 21.2261 17.8007 21.2196 17.842 21.2071L18.6855 20.9301C18.744 20.9113 18.7972 20.8792 18.8407 20.8364L24.1882 15.5923C24.2623 15.5192 24.3039 15.4203 24.3039 15.3172C24.3039 15.2141 24.2623 15.1152 24.1882 15.0421V15.0421ZM18.3473 20.2199L17.8261 20.3877L17.6073 20.177L17.7823 19.6658L21.6537 15.8693L22.2187 16.4195L18.3473 20.2199ZM22.7797 15.8693L22.2187 15.3191L22.7797 14.7651L23.3447 15.3191L22.7797 15.8693Z" fill="black"/>
</svg>
