<svg width="26" height="26" viewBox="0 0 26 26" fill="none" xmlns="http://www.w3.org/2000/svg">
<g clip-path="url(#clip0_11_59)">
<path d="M23.3592 4.60938H11.9003V5.44178H23.3592V4.60938Z" fill="black"/>
<path d="M19.1152 6.27417H11.9003V7.10657H19.1152V6.27417Z" fill="black"/>
<path d="M19.1152 7.93896H11.9003V8.77137H19.1152V7.93896Z" fill="black"/>
<path d="M23.3592 2.94458H15.2955V3.77698H23.3592V2.94458Z" fill="black"/>
<path d="M14.4468 2.94458H13.598V3.77698H14.4468V2.94458Z" fill="black"/>
<path d="M13.5979 17.5115H12.7491V18.3439H13.5979V17.5115Z" fill="black"/>
<path d="M7.53197 3.65491L6.93186 3.06641L6.08306 3.89881C5.91738 4.06133 5.91738 4.32479 6.08306 4.48731L6.93186 5.31972L7.53197 4.73121L6.98322 4.19306L7.53197 3.65491Z" fill="black"/>
<path d="M10.9272 3.89881L10.0784 3.06641L9.47827 3.65491L10.027 4.19306L9.47827 4.73121L10.0784 5.31972L10.9272 4.48731C11.0929 4.32479 11.0929 4.06133 10.9272 3.89881Z" fill="black"/>
<path d="M8.52721 2.81241L7.67761 5.30957L8.48239 5.57289L9.33198 3.07573L8.52721 2.81241Z" fill="black"/>
<path d="M22.5105 13.7658V10.4362H21.6616V13.7658H20.8128V9.60376H19.964V13.7658H19.1152V11.6848H18.2664V13.7658H17.4176V11.2686H16.5688V13.7658H15.72V12.101H14.8712V13.7658H14.0224V14.5982H23.3593V13.7658H22.5105Z" fill="black"/>
<path d="M22.9348 0.863525H3.41232C2.00654 0.864878 0.867285 1.98212 0.865906 3.36073V11.5291V11.5328V16.2629V17.5115C0.867285 18.8902 2.00654 20.0074 3.41232 20.0088H8.66727L6.96966 23.3384H4.68553C3.98235 23.3384 3.41232 23.8974 3.41232 24.587C3.41232 25.2766 3.98235 25.8356 4.68553 25.8356H21.6616C22.3648 25.8356 22.9348 25.2766 22.9348 24.587C22.9348 23.8974 22.3648 23.3384 21.6616 23.3384H19.3775L17.6799 20.0088H22.9348C24.3406 20.0074 25.4799 18.8902 25.4813 17.5115V3.36073C25.4799 1.98212 24.3406 0.864878 22.9348 0.863525ZM1.71471 6.71947L2.67938 7.84571C2.76001 7.93992 2.87906 7.99429 3.00447 7.99429H4.30357C4.42898 7.99429 4.54802 7.93992 4.62866 7.84571L5.59375 6.71947L6.54611 7.02288L6.65136 8.48915C6.66006 8.61178 6.72362 8.72436 6.82494 8.79673L7.87619 9.54589C7.97789 9.61789 8.10669 9.64239 8.22844 9.61289L9.68542 9.25788L10.2745 10.0524L9.48043 11.301C9.41465 11.4057 9.39942 11.5335 9.43884 11.6502L9.84075 12.8618C9.87942 12.9786 9.9687 13.0728 10.0848 13.119L11.476 13.6721V14.6543L10.0839 15.2075C9.96759 15.2535 9.87815 15.3479 9.8399 15.4651L9.71258 15.8467H7.26759C8.21868 13.8939 7.37539 11.5547 5.3841 10.622C4.2145 10.0742 2.84654 10.1168 1.71471 10.7362V6.71947ZM1.71471 11.7264C3.08744 10.6761 5.06845 10.9161 6.13932 12.2623C6.96616 13.3017 7.02998 14.7409 6.29826 15.8467H1.71471V11.7264ZM21.6616 24.1708C21.896 24.1708 22.086 24.3571 22.086 24.587C22.086 24.8168 21.896 25.0032 21.6616 25.0032H4.68553C4.45115 25.0032 4.26113 24.8168 4.26113 24.587C4.26113 24.3571 4.45115 24.1708 4.68553 24.1708H21.6616ZM18.4285 23.3384H7.91863L9.61624 20.0088H16.7309L18.4285 23.3384ZM24.6325 17.5115C24.6325 18.431 23.8724 19.1764 22.9348 19.1764H3.41232C2.47476 19.1764 1.71471 18.431 1.71471 17.5115V16.6791H6.5198H6.52362H24.6325V17.5115ZM24.6325 15.8467H10.7354L12.0599 15.3203C12.2199 15.2566 12.3247 15.1042 12.3248 14.9349V13.3912C12.3248 13.2217 12.2201 13.0691 12.0599 13.0053L10.5847 12.4202L10.3055 11.5774L11.1466 10.2538C11.2379 10.11 11.2311 9.9264 11.1297 9.78936L10.2045 8.54076C10.1029 8.40357 9.92664 8.34052 9.75884 8.38136L8.21571 8.75594L7.48659 8.23652L7.37497 6.68409C7.36282 6.51485 7.24712 6.36976 7.08255 6.31742L5.58654 5.84045C5.42192 5.78905 5.24197 5.83978 5.1303 5.96906L4.10877 7.16147H3.20352L2.18155 5.96906C2.06983 5.83962 1.88962 5.78884 1.7249 5.84045L1.71471 5.8442V3.36073C1.71471 2.44129 2.47476 1.69593 3.41232 1.69593H22.9348C23.8724 1.69593 24.6325 2.44129 24.6325 3.36073V15.8467Z" fill="black"/>
</g>
<defs>
<clipPath id="clip0_11_59">
<rect width="25.4642" height="24.972" fill="white" transform="translate(0.441467 0.863525)"/>
</clipPath>
</defs>
</svg>
