<svg width="21" height="26" viewBox="0 0 21 26" fill="none" xmlns="http://www.w3.org/2000/svg">
<path d="M18.0716 17.1782L16.5771 16.7479L13.3257 14.6652V14.188C14.2671 13.4917 14.9135 12.4273 15.0337 11.2072C15.5058 11.1327 15.8675 10.7304 15.8675 10.2467V8.93448C15.8675 8.92941 15.867 8.92443 15.8667 8.91936V7.25706C16.0548 7.12498 16.1742 6.90984 16.1742 6.66851V5.14727L18.4181 4.77244C18.7868 4.71084 19.052 4.42361 19.0781 4.05767C19.1041 3.69172 18.8821 3.37118 18.5256 3.26002L10.9611 0.900459C10.8033 0.851198 10.6366 0.851247 10.4788 0.90041L2.91422 3.26002C2.55777 3.37118 2.33575 3.69172 2.36176 4.05762C2.37828 4.29012 2.49157 4.49058 2.66644 4.62188V6.6112H2.64794C2.22196 6.6112 1.87541 6.95106 1.87541 7.3688V8.35627L1.37672 11.2267C1.29053 11.7232 1.68045 12.1776 2.1952 12.1776H3.88365C4.39726 12.1776 4.78852 11.7242 4.70213 11.2266L4.20344 8.35627V7.3688C4.20344 6.95106 3.85689 6.6112 3.43091 6.6112H3.41246V4.83765L5.26727 5.14746V6.66851C5.26727 6.90882 5.38608 7.12362 5.57328 7.25589L5.57398 8.93463V10.2467C5.57398 10.7304 5.9357 11.1327 6.40783 11.2072C6.52794 12.4266 7.1737 13.4905 8.11418 14.1869V14.6663L4.86342 16.7486L3.37014 17.1785C1.77221 17.6384 0.643929 19.0771 0.643929 20.7494V21.8396C0.643929 22.0416 0.810888 22.2054 1.01694 22.2054C1.22299 22.2054 1.38995 22.0417 1.38995 21.8396V20.7494C1.38995 19.4314 2.29059 18.2516 3.58026 17.8804L4.97164 17.4799L10.5303 20.7191C10.6431 20.7848 10.7924 20.7883 10.9114 20.7191L16.4704 17.4797L17.8616 17.8802C19.1511 18.2515 20.0517 19.4312 20.0517 20.7492V24.2822C20.0517 24.7354 19.6758 25.1041 19.2137 25.1041H17.5696V23.5273C17.5696 23.3253 17.4026 23.1615 17.1966 23.1615C16.9906 23.1615 16.8236 23.3253 16.8236 23.5273V25.1041H4.61629V23.5273C4.61629 23.3253 4.44933 23.1615 4.24328 23.1615C4.03723 23.1615 3.87027 23.3253 3.87027 23.5273V25.1041H2.22788C1.76579 25.1041 1.38985 24.7354 1.38985 24.2822V23.5496C1.38985 23.3475 1.22289 23.1838 1.01684 23.1838C0.810789 23.1838 0.643829 23.3475 0.643829 23.5496V24.2822C0.643829 25.1387 1.35439 25.8356 2.22783 25.8356H19.2136C20.087 25.8356 20.7976 25.1387 20.7976 24.2822V20.7491C20.7976 19.1162 19.7078 17.6493 18.0716 17.1782V17.1782ZM3.8836 11.446H2.1952C2.14303 11.446 2.10324 11.4003 2.1121 11.3495L2.56319 8.75299H3.51561L3.9667 11.3495C3.97551 11.4001 3.93602 11.446 3.8836 11.446V11.446ZM3.45742 7.3688V8.02144H2.62133V7.3688C2.62133 7.35441 2.63322 7.34276 2.64789 7.34276H3.43081C3.44553 7.34271 3.45742 7.35441 3.45742 7.3688V7.3688ZM9.38669 19.0644L9.53515 19.2882L5.72701 17.0691L8.14417 15.5208C8.25378 16.7821 8.67772 17.9958 9.38669 19.0644ZM9.3841 17.4854C10.2621 17.6077 11.1789 17.6078 12.0573 17.4854C11.8876 17.895 11.6784 18.2902 11.4295 18.6655L10.7207 19.7338L10.012 18.6655C9.76303 18.2902 9.55385 17.895 9.3841 17.4854V17.4854ZM12.0548 19.0644C12.7637 17.9958 13.1877 16.7821 13.2972 15.5208L15.7144 17.0691L11.9063 19.2882L12.0548 19.0644ZM14.2367 7.39329H15.1208V8.56863H14.6819C14.4364 8.56863 14.2366 8.37276 14.2366 8.13196V7.39329H14.2367ZM3.14031 3.95719L10.705 1.59753C10.7147 1.59451 10.7252 1.59446 10.735 1.59758L18.2996 3.95719C18.3153 3.96207 18.3367 3.9687 18.334 4.0068C18.3312 4.04484 18.3091 4.0485 18.2929 4.05123L15.7918 4.46897L14.8528 4.35509C14.6485 4.33026 14.4622 4.47278 14.4369 4.67324C14.4116 4.87374 14.5569 5.05635 14.7613 5.08113L15.4283 5.16204V6.66173L6.01324 6.66139V5.162L9.873 4.69362C10.4352 4.62549 11.0052 4.62549 11.567 4.69362L13.0278 4.87082C13.2322 4.89564 13.4185 4.75318 13.4438 4.55272C13.4691 4.35221 13.3238 4.1696 13.1194 4.14478L11.6586 3.96758C11.036 3.89203 10.4044 3.89203 9.78143 3.96758L5.64878 4.46907L3.14698 4.05123C3.13076 4.0485 3.10863 4.04484 3.1059 4.0068C3.10321 3.9687 3.12465 3.96202 3.14031 3.95719V3.95719ZM6.31975 8.56863L6.31925 7.39329H7.20478V8.13201C7.20478 8.37276 7.00505 8.56868 6.75946 8.56868H6.31975V8.56863ZM7.14072 11.0192C7.12152 10.7213 6.86907 10.488 6.56604 10.488C6.43031 10.488 6.3199 10.3797 6.3199 10.2467V9.30023H6.75946C7.4163 9.30023 7.95075 8.77616 7.95075 8.13201V7.39329H13.4906V8.13201C13.4906 8.77616 14.0251 9.30023 14.6819 9.30023H15.1215V10.2467C15.1215 10.3797 15.0111 10.488 14.8754 10.488C14.5723 10.488 14.3199 10.7213 14.3007 11.0193C14.1819 12.8663 12.6093 14.3131 10.7207 14.3131C8.832 14.3131 7.25954 12.8663 7.14072 11.0192V11.0192ZM10.7207 15.0447C11.3841 15.0447 12.0147 14.8959 12.5797 14.6314V14.8632C12.5797 15.4887 12.4937 16.1056 12.328 16.7006C11.3143 16.8902 10.1683 16.8978 9.11345 16.7006C8.94778 16.1056 8.86174 15.4887 8.86174 14.8632C8.86174 14.8555 8.86065 14.8479 8.86015 14.8403C8.86005 14.8388 8.8602 14.8372 8.8601 14.8357V14.6307C9.42553 14.8956 10.0567 15.0447 10.7207 15.0447V15.0447Z" fill="black"/>
</svg>
