<svg width="31" height="31" viewBox="0 0 31 31" fill="none" xmlns="http://www.w3.org/2000/svg">
<path d="M26.3661 0.59375L4.76131 0.59375C2.29338 0.59375 0.285187 2.56313 0.285187 4.98337L0.285187 26.1706C0.285187 28.5908 2.29338 30.5602 4.76131 30.5602L13.7732 30.5602L13.7732 19.9666L10.1923 19.9666L10.1923 14.699H13.7732V11.1288C13.7732 8.22414 16.1826 5.86129 19.1446 5.86129L24.5756 5.86129V11.1288H19.1446L19.1446 14.699H24.5756L23.6804 19.9666H19.1446V30.5602H26.3661C28.834 30.5602 30.8422 28.5908 30.8422 26.1706L30.8422 4.98337C30.8422 2.56313 28.834 0.59375 26.3661 0.59375Z" fill="black"/>
</svg>
