<svg width="31" height="31" viewBox="0 0 31 31" fill="none" xmlns="http://www.w3.org/2000/svg">
<path d="M0.234618 9.95862L0.234619 21.196C0.234619 26.3671 4.51069 30.5605 9.78368 30.5605L21.2425 30.5605C26.5155 30.5605 30.7916 26.3671 30.7916 21.196L30.7916 9.95862C30.7916 4.78753 26.5155 0.594106 21.2425 0.594106L9.78368 0.594106C4.51069 0.594106 0.234618 4.78754 0.234618 9.95862ZM21.2425 3.40346C24.9285 3.40346 27.9269 6.34392 27.9269 9.95862L27.9269 21.196C27.9269 24.8107 24.9285 27.7512 21.2425 27.7512L9.78368 27.7512C6.09774 27.7512 3.09934 24.8107 3.09934 21.196L3.09934 9.95862C3.09934 6.34392 6.09774 3.40346 9.78368 3.40346L21.2425 3.40346Z" fill="black"/>
<path d="M7.8739 15.5772C7.8739 19.7145 11.2944 23.0688 15.5131 23.0688C19.7319 23.0688 23.1524 19.7145 23.1524 15.5772C23.1524 11.44 19.7319 8.08563 15.5131 8.08563C11.2944 8.08563 7.8739 11.44 7.8739 15.5772ZM20.2877 15.5772C20.2877 18.1581 18.1449 20.2595 15.5131 20.2595C12.8795 20.2595 10.7386 18.1581 10.7386 15.5772C10.7386 12.9964 12.8795 10.895 15.5131 10.895C18.1449 10.895 20.2877 12.9964 20.2877 15.5772Z" fill="black"/>
<path d="M8.31887 7.52323C8.31887 6.97191 7.86313 6.52497 7.30095 6.52497C6.73876 6.52497 6.28302 6.97191 6.28302 7.52323C6.28302 8.07455 6.73876 8.52148 7.30095 8.52148C7.86313 8.52148 8.31887 8.07455 8.31887 7.52323Z" fill="black"/>
</svg>
