<svg width="31" height="31" viewBox="0 0 31 31" fill="none" xmlns="http://www.w3.org/2000/svg">
<path d="M15.5849 30.5602C24.025 30.5602 30.8634 23.854 30.8634 15.577C30.8634 7.29999 24.025 0.59375 15.5849 0.59375C7.1448 0.59375 0.306396 7.29999 0.306396 15.577C0.306396 23.854 7.1448 30.5602 15.5849 30.5602ZM7.29758 15.2523L22.0286 9.68232C22.7123 9.44009 23.3094 9.84589 23.0879 10.8598L23.0892 10.8585L20.581 22.4468C20.3951 23.2684 19.8972 23.4681 19.2008 23.0811L15.3812 20.3204L13.5388 22.061C13.3351 22.2607 13.1632 22.4293 12.7686 22.4293L13.0397 18.6173L20.1188 12.3456C20.4269 12.0796 20.05 11.9298 19.6439 12.1945L10.8957 17.596L7.12442 16.4423C6.30575 16.1875 6.28793 15.6394 7.29758 15.2523V15.2523Z" fill="black"/>
</svg>
